<svg width="45" height="40" viewBox="0 0 45 40" fill="none" xmlns="http://www.w3.org/2000/svg">
<rect width="44.4444" height="40" rx="3" fill="#FFC54D"/>
<path d="M9.00446 11.1111V22.3111C9.00446 23.4311 9.28001 24.2933 9.83112 24.8978C10.3822 25.5022 11.1911 25.8044 12.2578 25.8044C13.3245 25.8044 14.1422 25.5022 14.7111 24.8978C15.28 24.2933 15.5645 23.4311 15.5645 22.3111V11.1111H20.1245V22.2844C20.1245 23.9555 19.7689 25.3689 19.0578 26.5244C18.3467 27.68 17.3867 28.5511 16.1778 29.1378C14.9867 29.7244 13.6533 30.0178 12.1778 30.0178C10.7022 30.0178 9.37779 29.7333 8.20446 29.1644C7.0489 28.5778 6.13335 27.7066 5.45779 26.5511C4.78224 25.3778 4.44446 23.9555 4.44446 22.2844V11.1111H9.00446Z" fill="#1E1E1E"/>
<path d="M34.7932 29.8311L30.9799 24.0978L27.6199 29.8311H22.4465L28.4465 20.3111L22.3132 11.1111H27.6199L31.3799 16.7644L34.6865 11.1111H39.8599L33.9132 20.5511L40.0999 29.8311H34.7932Z" fill="#1E1E1E"/>
</svg>
