<svg width="149" height="40" viewBox="0 0 149 40" fill="none" xmlns="http://www.w3.org/2000/svg">
<rect x="103.827" width="44.4444" height="40" rx="3" fill="#FFC54D"/>
<path d="M16.8267 10.3024L9.81333 28.889H7.01333L0 10.3024H2.58667L8.42667 26.329L14.2667 10.3024H16.8267Z" fill="white"/>
<path d="M32.8208 21.0224C32.8208 21.4846 32.7942 21.9735 32.7408 22.489H21.0608C21.1497 23.929 21.6386 25.0579 22.5275 25.8757C23.4342 26.6757 24.5275 27.0757 25.8075 27.0757C26.8564 27.0757 27.7275 26.8357 28.4208 26.3557C29.1319 25.8579 29.6297 25.2001 29.9142 24.3824H32.5275C32.1364 25.7868 31.3542 26.9335 30.1808 27.8224C29.0075 28.6935 27.5497 29.129 25.8075 29.129C24.4208 29.129 23.1764 28.8179 22.0742 28.1957C20.9897 27.5735 20.1364 26.6935 19.5142 25.5557C18.8919 24.4001 18.5808 23.0668 18.5808 21.5557C18.5808 20.0446 18.8831 18.7201 19.4875 17.5824C20.0919 16.4446 20.9364 15.5735 22.0208 14.969C23.1231 14.3468 24.3853 14.0357 25.8075 14.0357C27.1942 14.0357 28.4208 14.3379 29.4875 14.9424C30.5542 15.5468 31.3719 16.3824 31.9408 17.449C32.5275 18.4979 32.8208 19.689 32.8208 21.0224ZM30.3142 20.5157C30.3142 19.5913 30.1097 18.8001 29.7008 18.1424C29.2919 17.4668 28.7319 16.9601 28.0208 16.6224C27.3275 16.2668 26.5542 16.089 25.7008 16.089C24.4742 16.089 23.4253 16.4801 22.5542 17.2624C21.7008 18.0446 21.2119 19.129 21.0875 20.5157H30.3142Z" fill="white"/>
<path d="M38.4506 16.649C38.8773 15.8135 39.4817 15.1646 40.264 14.7024C41.064 14.2401 42.0328 14.009 43.1706 14.009V16.5157H42.5306C39.8106 16.5157 38.4506 17.9913 38.4506 20.9424V28.889H36.024V14.2757H38.4506V16.649Z" fill="white"/>
<path d="M63.5452 14.009C64.683 14.009 65.6963 14.249 66.5852 14.729C67.4741 15.1913 68.1763 15.8935 68.6919 16.8357C69.2074 17.7779 69.4652 18.9246 69.4652 20.2757V28.889H67.0652V20.6224C67.0652 19.1646 66.7008 18.0535 65.9719 17.289C65.2608 16.5068 64.2919 16.1157 63.0652 16.1157C61.803 16.1157 60.7985 16.5246 60.0519 17.3424C59.3052 18.1424 58.9319 19.3068 58.9319 20.8357V28.889H56.5319V20.6224C56.5319 19.1646 56.1674 18.0535 55.4385 17.289C54.7274 16.5068 53.7585 16.1157 52.5319 16.1157C51.2697 16.1157 50.2652 16.5246 49.5185 17.3424C48.7719 18.1424 48.3985 19.3068 48.3985 20.8357V28.889H45.9719V14.2757H48.3985V16.3824C48.8785 15.6179 49.5185 15.0313 50.3185 14.6224C51.1363 14.2135 52.0341 14.009 53.0119 14.009C54.2385 14.009 55.323 14.2846 56.2652 14.8357C57.2074 15.3868 57.9097 16.1957 58.3719 17.2624C58.7808 16.2313 59.4563 15.4313 60.3985 14.8624C61.3408 14.2935 62.3897 14.009 63.5452 14.009Z" fill="white"/>
<path d="M74.6992 11.9024C74.2369 11.9024 73.8458 11.7424 73.5258 11.4224C73.2058 11.1024 73.0458 10.7113 73.0458 10.249C73.0458 9.78681 73.2058 9.3957 73.5258 9.0757C73.8458 8.7557 74.2369 8.5957 74.6992 8.5957C75.1436 8.5957 75.517 8.7557 75.8192 9.0757C76.1392 9.3957 76.2992 9.78681 76.2992 10.249C76.2992 10.7113 76.1392 11.1024 75.8192 11.4224C75.517 11.7424 75.1436 11.9024 74.6992 11.9024ZM75.8725 14.2757V28.889H73.4458V14.2757H75.8725Z" fill="white"/>
<path d="M87.1283 14.009C88.9061 14.009 90.3461 14.5513 91.4483 15.6357C92.5506 16.7024 93.1017 18.249 93.1017 20.2757V28.889H90.7017V20.6224C90.7017 19.1646 90.3372 18.0535 89.6083 17.289C88.8794 16.5068 87.8839 16.1157 86.6217 16.1157C85.3417 16.1157 84.3195 16.5157 83.555 17.3157C82.8083 18.1157 82.435 19.2801 82.435 20.809V28.889H80.0083V14.2757H82.435V16.3557C82.915 15.609 83.5639 15.0313 84.3817 14.6224C85.2172 14.2135 86.1328 14.009 87.1283 14.009Z" fill="white"/>
<path d="M98.319 11.9024C97.8567 11.9024 97.4656 11.7424 97.1456 11.4224C96.8256 11.1024 96.6656 10.7113 96.6656 10.249C96.6656 9.78681 96.8256 9.3957 97.1456 9.0757C97.4656 8.7557 97.8567 8.5957 98.319 8.5957C98.7634 8.5957 99.1367 8.7557 99.439 9.0757C99.759 9.3957 99.919 9.78681 99.919 10.249C99.919 10.7113 99.759 11.1024 99.439 11.4224C99.1367 11.7424 98.7634 11.9024 98.319 11.9024ZM99.4923 14.2757V28.889H97.0656V14.2757H99.4923Z" fill="white"/>
<path d="M112.832 11.1111V22.3111C112.832 23.4311 113.107 24.2933 113.659 24.8978C114.21 25.5022 115.019 25.8044 116.085 25.8044C117.152 25.8044 117.97 25.5022 118.539 24.8978C119.107 24.2933 119.392 23.4311 119.392 22.3111V11.1111H123.952V22.2844C123.952 23.9555 123.596 25.3689 122.885 26.5244C122.174 27.68 121.214 28.5511 120.005 29.1378C118.814 29.7244 117.481 30.0178 116.005 30.0178C114.53 30.0178 113.205 29.7333 112.032 29.1644C110.876 28.5778 109.961 27.7066 109.285 26.5511C108.61 25.3778 108.272 23.9555 108.272 22.2844V11.1111H112.832Z" fill="#1E1E1E"/>
<path d="M138.621 29.8311L134.807 24.0978L131.447 29.8311H126.274L132.274 20.3111L126.141 11.1111H131.447L135.207 16.7644L138.514 11.1111H143.687L137.741 20.5511L143.927 29.8311H138.621Z" fill="#1E1E1E"/>
</svg>
